<?xml version="1.0" encoding="UTF-8" standalone="no"?>
<svg
   viewBox="0 -1 100 100"
   version="1.1"
   id="svg8"
   sodipodi:docname="favicon.svg"
   width="100"
   height="100"
   inkscape:version="1.1 (c68e22c387, 2021-05-23)"
   inkscape:export-filename="C:\Users\luca\Downloads\php-logo.png"
   inkscape:export-xdpi="491.51999"
   inkscape:export-ydpi="491.51999"
   xmlns:inkscape="http://www.inkscape.org/namespaces/inkscape"
   xmlns:sodipodi="http://sodipodi.sourceforge.net/DTD/sodipodi-0.dtd"
   xmlns="http://www.w3.org/2000/svg"
   xmlns:svg="http://www.w3.org/2000/svg">
  <defs
     id="defs12" />
  <sodipodi:namedview
     id="namedview10"
     pagecolor="#ffffff"
     bordercolor="#666666"
     borderopacity="1.0"
     inkscape:pageshadow="2"
     inkscape:pageopacity="0.0"
     inkscape:pagecheckerboard="true"
     showgrid="false"
     inkscape:zoom="5.645"
     inkscape:cx="55.624446"
     inkscape:cy="51.815766"
     inkscape:window-width="1920"
     inkscape:window-height="1017"
     inkscape:window-x="-8"
     inkscape:window-y="-8"
     inkscape:window-maximized="1"
     inkscape:current-layer="svg8" />
  <rect
     style="fill:#8892bf;fill-opacity:1"
     id="rect926"
     width="100"
     height="100"
     x="0"
     y="-1" />
  <path
     d="m 9.691,35.061 h 14.204 c 4.169,0.035 7.19,1.237 9.063,3.604 1.873,2.367 2.491,5.6 1.855,9.699 -0.247,1.873 -0.795,3.71 -1.643,5.512 -0.813,1.802 -1.943,3.427 -3.392,4.876 -1.767,1.837 -3.657,3.003 -5.671,3.498 -2.014,0.495 -4.099,0.742 -6.254,0.742 h -6.36 L 9.479,73.062 H 2.112 L 9.691,35.061 v 0 m 6.201,6.042 -3.18,15.9 c 0.212,0.035 0.424,0.053 0.636,0.053 0.247,0 0.495,0 0.742,0 3.392,0.035 6.219,-0.3 8.48,-1.007 2.261,-0.742 3.781,-3.321 4.558,-7.738 0.636,-3.71 0,-5.848 -1.908,-6.413 -1.873,-0.565 -4.222,-0.83 -7.049,-0.795 -0.424,0.035 -0.83,0.053 -1.219,0.053 -0.353,0 -0.724,0 -1.113,0 l 0.053,-0.053"
     id="path2"
     style="fill:#ffffff;fill-opacity:1" />
  <path
     d="m 43.205,24.938 h 7.314 l -2.067,10.123 h 6.572 c 3.604,0.071 6.289,0.813 8.056,2.226 1.802,1.413 2.332,4.099 1.59,8.056 l -3.551,17.649 h -7.42 l 3.392,-16.854 c 0.353,-1.767 0.247,-3.021 -0.318,-3.763 -0.565,-0.742 -1.784,-1.113 -3.657,-1.113 l -5.883,-0.053 -4.346,21.783 h -7.314 l 7.632,-38.054 v 0"
     id="path4"
     style="fill:#ffffff;fill-opacity:1" />
  <path
     d="m 72.524,35.061 h 14.204 c 4.169,0.035 7.19,1.237 9.063,3.604 1.873,2.367 2.491,5.6 1.855,9.699 -0.247,1.873 -0.795,3.71 -1.643,5.512 -0.813,1.802 -1.943,3.427 -3.392,4.876 -1.767,1.837 -3.657,3.003 -5.671,3.498 -2.014,0.495 -4.099,0.742 -6.254,0.742 h -6.36 l -2.014,10.07 h -7.367 l 7.579,-38.001 v 0 m 6.201,6.042 -3.18,15.9 c 0.212,0.035 0.424,0.053 0.636,0.053 0.247,0 0.495,0 0.742,0 3.392,0.035 6.219,-0.3 8.48,-1.007 2.261,-0.742 3.781,-3.321 4.558,-7.738 0.636,-3.71 0,-5.848 -1.908,-6.413 -1.873,-0.565 -4.222,-0.83 -7.049,-0.795 -0.424,0.035 -0.83,0.053 -1.219,0.053 -0.353,0 -0.724,0 -1.113,0 l 0.053,-0.053"
     id="path6"
     style="fill:#ffffff;fill-opacity:1" />
</svg>
